HIERARCHY
ROOT Hips
{
  OFFSET 25.7531 95.2748 -35.7159
  CHANNELS 6 Xposition Yposition Zposition Zrotation Xrotation Yrotation
  JOINT Spine
  {
    OFFSET 0 11.8905 0
    CHANNELS 3 Zrotation Xrotation Yrotation
    JOINT Spine1
    {
      OFFSET 0 25.6574 0.12766
      CHANNELS 3 Zrotation Xrotation Yrotation
      JOINT HEad
      {
        OFFSET 0 8.73416 0.01134
        CHANNELS 3 Zrotation Xrotation Yrotation
        End Site
        {
          OFFSET -0.29 12.7742 2.51395
        }
      }
      JOINT LeftShoulder1
      {
        OFFSET 8.99 -0.36225 -0.22
        CHANNELS 3 Zrotation Xrotation Yrotation
        JOINT LeftArm
        {
          OFFSET 10.2827 -0.00338 0.32212
          CHANNELS 3 Zrotation Xrotation Yrotation
          JOINT LeftForeArm
          {
            OFFSET 32.7669 0.09914 -1.42434
            CHANNELS 3 Zrotation Xrotation Yrotation
            JOINT LeftHand
            {
              OFFSET 27.5643 0.08536 1.02216
              CHANNELS 3 Zrotation Xrotation Yrotation
              End Site
              {
                OFFSET 16.7443 -0.6 1.50291
              }
            }
          }
        }
      }
      JOINT RightShoulder
      {
        OFFSET -8.99 -0.36225 -0.22
        CHANNELS 3 Zrotation Xrotation Yrotation
        JOINT RightArm
        {
          OFFSET -10.2827 -0.00338 0.32212
          CHANNELS 3 Zrotation Xrotation Yrotation
          JOINT RightForeArm
          {
            OFFSET -32.8971 0.09914 -1.42434
            CHANNELS 3 Zrotation Xrotation Yrotation
            JOINT RightHand
            {
              OFFSET -27.4921 0.08536 1.02216
              CHANNELS 3 Zrotation Xrotation Yrotation
              End Site
              {
                OFFSET -16.6312 -0.6 1.50291
              }
            }
          }
        }
      }
    }
  }
  JOINT LeftUpLeg
  {
    OFFSET 8.9458 -8.66707 0.10165
    CHANNELS 3 Zrotation Xrotation Yrotation
    JOINT LeftLeg
    {
      OFFSET 0 -44.4227 1.3727
      CHANNELS 3 Zrotation Xrotation Yrotation
      JOINT LeftFoot
      {
        OFFSET -0.25355 -42.0924 -1.46059
        CHANNELS 3 Zrotation Xrotation Yrotation
        JOINT LeftToes
        {
          OFFSET -0.04 -4.41509 8.4991
          CHANNELS 3 Zrotation Xrotation Yrotation
          End Site
          {
            OFFSET 0.08 -0.04745 9.77979
          }
        }
      }
    }
  }
  JOINT RightUpLeg
  {
    OFFSET -8.9458 -8.66707 0.10165
    CHANNELS 3 Zrotation Xrotation Yrotation
    JOINT RightLeg
    {
      OFFSET 0 -44.4227 1.3727
      CHANNELS 3 Zrotation Xrotation Yrotation
      JOINT RightFoot
      {
        OFFSET 0.25355 -42.0924 -1.46059
        CHANNELS 3 Zrotation Xrotation Yrotation
        JOINT RightToes
        {
          OFFSET 0.04 -4.41509 8.4991
          CHANNELS 3 Zrotation Xrotation Yrotation
          End Site
          {
            OFFSET -0.08 -0.13745 9.77979
          }
        }
      }
    }
  }
}
MOTION
Frames:	20
Frame Time:	0.0166667
26.0054 95.1364 -34.2331 1.50409 -0.664448 106.188 -8.12107 7.32133 1.16132 0.140378 1.78431 5.4708 -11.2651 31.8157 3.60775 -11.4278 -40.9126 -6.73645 3.17045 -76.9118 29.4467 -40.9524 84.5177 -79.9585 17.5047 9.52176 3.88973 5.79085 -46.5454 -16.5397 77.1356 56.453 22.2676 1.30282 -12.1611 93.8385 13.8942 14.4118 15.4281 15.8091 -10.3791 -41.7132 -15.1723 5.21358 70.971 62.6372 14.7346 -9.04564 -81.0817 -11.4325 -38.3066 -28.9847 2.5251 16.8333 35.1651 -12.9819 -47.0419 -19.8861 9.58668 1.23426 12.867 -16.2772 8.92454 
25.9187 95.2478 -34.9389 1.27513 -0.697681 105.973 -9.39933 7.99235 1.35677 0.650783 1.66936 5.66068 -10.3146 33.6368 1.36983 -11.2375 -42.105 -7.93046 1.98861 -73.9027 28.7497 -38.1592 82.7279 -81.5864 18.2133 9.34469 4.14609 5.35383 -47.5491 -17.723 77.6752 57.1836 21.395 0.372194 -13.0899 93.1547 15.2553 15.0089 16.1922 15.9574 -9.73305 -45.3009 -14.8 2.41568 74.4034 65.9443 15.1664 -9.36319 -81.2249 -11.2937 -40.2627 -30.2268 3.9713 18.9996 35.4065 -17.0818 -48.1833 -17.8334 9.9326 0.845044 9.85935 -15.5967 10.0769 
25.7531 95.2748 -35.7159 1.41397 -0.610519 105.653 -10.6617 8.58235 1.43041 1.20958 1.56751 5.83556 -9.48339 35.0537 -0.429163 -10.9998 -43.3256 -9.23909 1.40205 -71.312 28.0953 -35.4326 81.2167 -83.2179 18.2918 8.49857 4.36433 5.08325 -48.4054 -18.5811 78.208 57.9817 20.6658 -0.377796 -13.6462 92.7457 15.8685 15.0426 16.3635 15.7438 -9.11776 -48.3944 -15.5711 0.409818 77.5228 69.3145 15.3778 -9.12252 -81.4474 -11.6266 -42.3181 -31.166 5.37995 21.1239 35.0137 -20.1598 -48.8813 -15.1141 10.2308 0.774326 6.58948 -14.8996 10.9289 
25.5673 95.2458 -36.6259 1.37596 -0.6035 105.506 -11.8111 9.12666 1.36378 1.70011 1.48379 5.95629 -8.84074 35.9499 -1.79215 -10.9168 -44.4996 -10.4539 1.11443 -69.0426 27.8214 -32.9344 79.945 -84.8929 19.129 8.19695 4.88895 4.98857 -49.1638 -19.5009 78.5827 58.388 19.8899 -1.06194 -14.1456 92.7226 16.4325 15.1894 16.8273 15.9755 -8.98296 -51.1978 -15.9536 -1.6646 80.1772 72.232 15.6484 -9.49864 -81.5303 -12.145 -44.5936 -31.7596 6.41628 22.8123 34.2241 -22.4592 -49.5244 -11.7871 10.129 0.588069 3.24438 -14.3654 11.384 
25.3727 95.2301 -37.5908 1.43341 -0.503691 105.571 -12.6375 9.63479 1.36323 2.25869 1.33151 6.21474 -8.36898 36.3304 -2.74598 -11.1265 -45.7771 -11.6136 0.863391 -67.2221 28.2021 -30.6876 78.7432 -86.5704 19.968 7.50329 5.31693 5.14952 -49.7187 -20.2252 78.9516 58.65 19.1651 -1.70687 -14.4255 93.1603 17.2324 15.2134 17.3907 15.7931 -8.61162 -53.5736 -16.4099 -3.45587 82.5108 74.8358 15.7467 -9.36607 -81.8958 -13.1455 -47.0354 -32.0714 7.11636 23.9175 33.3561 -23.9039 -50.5479 -8.10371 10.4451 0.130676 -0.186376 -13.6146 11.4702 
25.1956 95.1918 -38.5921 1.60331 -0.436444 105.545 -13.4027 10.1081 1.11801 2.53886 1.27825 6.28548 -8.01287 36.3988 -3.32559 -11.0576 -46.9287 -12.7367 1.28524 -65.6687 28.4246 -28.7316 78.0469 -88.2332 20.8138 7.19937 5.52785 5.10684 -50.3052 -20.8551 79.2638 58.6455 18.5842 -2.37415 -14.709 93.6578 17.71 15.2945 17.7923 15.786 -8.38555 -55.5861 -16.5496 -5.1261 84.4865 77.1 15.8215 -9.34801 -82.3087 -14.2847 -49.2982 -32.1931 7.52683 24.5408 33.07 -23.1678 -50.4023 -2.99457 10.582 -0.525388 -4.03487 -13.5987 9.43933 
25.0766 95.1678 -39.6338 1.60683 -0.605245 105.474 -14.3371 10.8163 0.528375 2.89304 0.72981 6.07724 -7.76075 36.1553 -3.56477 -10.612 -48.2476 -14.174 2.34697 -64.6714 28.293 -27.1435 77.6972 -89.9152 21.2377 6.74176 5.36122 5.03202 -51.1073 -21.3199 79.6192 58.2643 18.2405 -3.09501 -15.1737 93.9386 17.9547 15.2763 17.8105 15.8293 -8.42122 -57.1705 -17.0451 -6.27093 86.2818 79.2561 16.0276 -9.32818 -82.7218 -15.4128 -51.1393 -32.0739 7.35014 25.002 32.418 -22.4345 -50.3939 2.16118 10.7274 -0.986208 -7.83583 -13.3228 7.73053 
24.9319 95.1983 -40.6404 1.80661 -0.425204 106.011 -14.3759 11.0726 0.073021 2.53199 0.900025 6.03076 -7.67748 34.7323 -2.31428 -10.8636 -49.3604 -15.0716 2.84777 -63.5194 29.0308 -25.5677 77.2897 -91.1915 21.4232 6.56475 5.1965 4.99216 -51.4501 -21.7025 79.8218 58.0537 17.7863 -3.78279 -15.2666 94.6901 17.1896 15.0944 17.2377 15.1087 -8.15998 -57.3718 -17.0727 -6.87189 86.7051 81.0596 16.0972 -9.09599 -83.3221 -16.6349 -52.6885 -31.9543 7.16273 25.8676 33.5036 -20.6706 -48.2327 -11.2436 10.9723 -0.506503 6.65832 -15.1227 5.3672 
24.7724 95.2731 -41.6246 1.78781 -0.28594 106.063 -14.0475 11.1625 -0.372991 2.01603 1.37791 6.02996 -7.66099 33.3349 -0.985103 -11.0056 -50.5141 -15.9245 3.36854 -62.5937 29.7776 -24.2579 77.0234 -92.3527 21.1861 6.3481 4.82948 4.98829 -51.4273 -21.9654 79.9859 57.9328 17.2634 -4.45339 -15.1851 95.4932 15.2158 14.584 15.7354 14.1584 -7.85775 -56.2926 -16.8082 -6.76637 86.0086 82.5231 16.2589 -9.14643 -83.9371 -17.6777 -53.7747 -31.8748 6.91228 26.2006 33.9688 -20.0122 -46.2429 -24.3921 10.4011 0.576524 20.9867 -15.6555 3.41021 
24.5515 95.3586 -42.5084 2.12603 0.133083 105.892 -13.0114 10.4762 -0.712648 1.4258 2.25312 6.15631 -7.61595 32.078 0.366683 -11.3991 -51.5261 -16.3937 3.66573 -61.7203 30.6493 -23.4091 76.9531 -93.6986 20.7912 6.31508 4.19097 5.48346 -51.1445 -22.2271 80.8384 57.8757 16.8858 -4.60777 -15.5302 96.6476 11.7256 13.6311 14.2084 13.3043 -7.34655 -55.2386 -17.2989 -6.6506 85.1738 83.8825 16.3795 -9.52191 -84.3791 -18.3985 -54.4803 -32.3057 6.57752 26.3463 35.8542 -17.2094 -45.1145 -14.5426 9.95621 1.53857 11.7878 -17.1679 1.17583 
24.3154 95.469 -43.2768 2.5417 0.646292 106.109 -11.6677 9.80872 -0.715979 0.339583 3.18272 6.62715 -7.61938 31.0103 1.73192 -12.1789 -52.2287 -16.4802 3.56892 -60.676 31.8338 -22.516 76.9818 -94.7593 19.9474 6.30944 3.7107 5.51076 -51.0721 -22.4437 80.8626 57.5596 16.4322 -5.09103 -15.2628 97.4712 10.1158 13.1064 13.4977 12.5267 -6.88565 -54.1611 -17.701 -6.71231 84.2488 84.7192 16.4444 -9.8118 -85.0635 -19.2015 -55.0897 -32.5196 5.89875 26.5145 38.5599 -13.7302 -43.0194 -21.3475 9.7101 2.23133 19.1329 -19.5436 -1.45573 
24.0871 95.5624 -43.9534 2.76992 0.555332 105.984 -11.2835 9.48647 -1.03661 -0.126407 3.50678 6.82575 -7.69065 30.1049 3.08492 -12.656 -53.2592 -17.1227 3.8904 -60.3393 32.2775 -21.3842 76.9828 -95.4032 19.0299 6.43306 3.52985 5.57545 -51.1962 -22.3828 80.7099 57.3333 16.2402 -5.87982 -14.482 98.3279 10.0413 12.9733 13.4266 12.3182 -6.45462 -52.8526 -17.8432 -7.15526 83.4033 85.0753 16.5815 -9.69653 -86.1368 -20.1615 -55.4607 -32.3847 4.66925 26.1759 41.3528 -9.86842 -41.7879 -14.5318 9.12091 3.30963 12.7668 -21.3093 -4.83122 
23.9051 95.6957 -44.5375 2.75088 0.317786 105.623 -11.103 9.62432 -1.22459 -0.10485 3.52538 7.18793 -7.69627 29.2945 4.3663 -13.0722 -54.2206 -17.822 4.54445 -60.4773 32.2873 -20.6431 77.37 -96.4098 17.9538 6.54628 3.1967 6.00892 -51.4532 -22.2804 80.9588 56.907 16.1834 -6.80681 -14.0731 98.2678 10.3623 12.9408 13.3628 12.5182 -6.57406 -51.941 -18.201 -7.15518 82.2789 85.6091 16.5301 -9.77428 -86.7929 -20.7638 -56.0531 -32.1192 3.20218 25.8827 43.1874 -5.34841 -40.0186 -13.2602 8.30862 4.19319 12.5974 -23.3554 -8.18838 
23.7852 95.8817 -45.0509 2.92022 0.405583 105.309 -10.3069 9.46382 -1.57326 -0.541148 3.87198 7.37489 -7.58559 28.4889 5.54132 -13.9581 -54.6436 -18.0839 5.24516 -60.517 32.32 -20.1731 78.1877 -97.6762 16.6297 6.74784 3.02585 6.42963 -51.89 -22.4874 81.3015 56.1803 16.2076 -7.54119 -14.1181 98.463 10.8624 12.9563 13.6343 12.7138 -6.6825 -51.2369 -18.8387 -6.97328 81.0117 86.0817 16.4546 -10.2621 -87.1397 -21.066 -56.7356 -32.332 1.47931 25.5758 44.3384 -1.68281 -39.4198 -10.9547 7.77537 4.58587 11.6085 -23.2309 -10.436 
23.7432 96.0894 -45.5329 2.9945 0.288496 105.602 -9.91404 8.8458 -2.11453 -0.727787 3.79898 7.38172 -7.54355 27.8186 6.63869 -14.3142 -55.2411 -18.4991 5.98459 -60.8452 32.2648 -19.315 78.8767 -98.504 15.4411 6.91746 3.0286 6.36075 -52.5856 -22.5649 81.3693 55.5225 16.352 -8.54381 -13.8944 98.4832 12.2056 13.1864 14.2848 12.5412 -6.76621 -50.3392 -19.3773 -6.52481 80.029 86.5044 16.7339 -10.74 -87.4814 -21.2056 -57.0919 -31.982 -0.77914 25.3986 44.8824 1.73867 -39.5489 -9.72213 8.46095 4.89755 11.7041 -21.6702 -12.0116 
23.6873 96.3281 -45.9788 2.88713 -0.0378232 105.846 -9.24438 8.4183 -2.56508 -1.01318 3.89041 7.46462 -7.51431 27.1986 7.62849 -14.6408 -55.8909 -18.9288 6.53493 -61.4281 32.4013 -18.5461 79.5814 -99.4262 14.3113 7.09122 2.98893 6.39983 -53.0515 -22.7279 81.6816 54.7051 16.3551 -9.36883 -14.0519 98.084 12.653 13.2264 14.4621 12.4607 -7.13543 -49.4754 -19.647 -6.03 79.0652 86.7284 17.0817 -11.1601 -87.9053 -21.3202 -57.3176 -31.7142 -2.80068 25.076 44.9286 4.42722 -39.6613 -8.46324 8.5111 5.05647 11.5369 -20.4374 -12.7852 
23.5833 96.6189 -46.3882 2.26153 -0.278944 105.866 -7.99629 8.24378 -3.03233 -1.28535 3.84309 7.51526 -7.47395 26.556 8.49291 -15.0417 -56.6559 -19.4647 6.82371 -62.2273 32.7753 -17.8074 80.1862 -100.362 13.3077 7.22738 3.12578 6.36535 -53.4732 -22.843 82.016 53.7797 16.3511 -10.038 -14.2607 97.5554 12.6103 13.1234 14.6059 12.2206 -7.82249 -48.6061 -19.58 -5.59125 78.0925 85.6909 17.463 -11.5268 -87.5216 -21.4216 -57.4244 -31.5126 -4.73505 24.583 44.6204 6.51828 -39.6577 -7.6162 8.19102 5.12894 11.5874 -19.5958 -13.0429 
23.3927 97.0385 -46.7731 1.62444 -1.02364 106.03 -7.21549 7.35924 -3.245 -1.28698 3.58414 7.82083 -7.48421 25.9103 9.24278 -15.2599 -57.7758 -20.1372 7.03028 -63.102 33.0117 -16.7123 80.321 -100.865 12.3311 7.36131 3.63266 6.03217 -53.5968 -22.4526 82.4332 53.6137 16.392 -10.6541 -13.9896 97.4907 11.9941 12.8588 14.6937 12.2549 -8.69101 -47.7764 -19.297 -5.11595 77.1665 84.5978 17.9623 -12.3703 -86.87 -21.2674 -57.44 -31.233 -6.34199 23.8897 44.4369 7.97417 -39.4131 -6.80717 8.16697 5.39694 11.5688 -18.6148 -12.8453 
23.1607 97.5577 -47.123 1.24322 -1.97526 106.218 -6.70291 6.80943 -3.65161 -1.25197 3.39949 7.90824 -7.54082 25.4389 9.87516 -15.6591 -58.6978 -20.6784 7.19142 -63.8846 33.2782 -15.9154 80.6302 -101.655 11.4232 7.47096 4.21788 5.69068 -54.0614 -22.4373 82.597 52.9696 16.6298 -11.3852 -13.8902 97.6811 11.2751 12.6322 14.1108 12.5883 -9.55583 -47.0334 -19.0806 -4.50634 76.2916 83.3166 18.5875 -13.626 -86.0216 -20.9327 -57.415 -30.8006 -7.78475 23.2767 44.7999 9.42658 -38.9409 -6.16894 7.284 5.49508 11.5712 -18.1807 -12.4638 
22.96 98.0096 -47.3766 0.763233 -2.62343 106.319 -6.4537 6.59835 -3.96143 -1.43111 3.46551 8.04428 -7.66035 25.1208 10.3989 -16.1995 -59.2774 -20.9785 7.36484 -64.4266 33.5842 -15.2465 81.1867 -102.552 10.6795 7.57195 4.80341 5.13487 -54.6501 -22.5793 82.3037 52.0888 16.9514 -12.3478 -13.5122 98.041 10.6956 12.4901 13.045 12.7366 -10.4429 -46.2372 -18.9369 -3.89963 75.4883 82.3514 19.2098 -14.1722 -85.1032 -20.5131 -57.3776 -30.2617 -8.90558 22.7044 44.3583 10.5967 -38.5685 -5.62106 7.221 5.58662 11.608 -16.9616 -12.0813 
